<svg width="135" height="36" viewBox="0 0 135 36" fill="none" xmlns="http://www.w3.org/2000/svg">
<path fillRule="evenodd" clipRule="evenodd" d="M75.7014 6.62075C68.2678 3.38228 72.056 -0.448117 74.1358 1.16827C74.7072 -0.368436 76.9641 -0.459495 77.4612 1.31626C77.1356 0.946308 76.6499 0.735721 76.1356 0.764179C75.2843 0.809711 74.7301 1.45285 74.6044 2.26105C74.4101 3.51887 75.1871 5.02712 75.8442 6.0459L75.9642 6.22803C75.8785 6.35324 75.7928 6.48415 75.7014 6.62075Z" fill="#FD297B"/>
<path fillRule="evenodd" clipRule="evenodd" d="M76.1841 5.8237C73.1043 1.04284 76.8183 0.274474 77.4011 2.02746C78.9038 0.940381 81.4807 3.71215 76.1841 5.8237Z" fill="#FD297B"/>
<path d="M60.8902 29.6426C60.3588 29.6426 59.8275 29.5174 59.3018 29.2613C58.7761 29.0108 58.3247 28.6181 57.9476 28.0945C57.5705 27.5709 57.3305 26.905 57.2334 26.0911C56.4163 26.9904 55.365 27.7872 54.0794 28.4758C52.7081 29.2044 51.3368 29.5743 49.9598 29.5857C49.0341 29.5857 48.1256 29.4718 47.24 29.2442C46.3544 29.0165 45.5601 28.6637 44.8573 28.1799C44.1545 27.7018 43.5946 27.07 43.1775 26.296C42.7604 25.5219 42.5547 24.5828 42.5547 23.4901C42.5547 22.1981 42.789 21.1452 43.2575 20.337C43.726 19.5288 44.3431 18.8913 45.103 18.4133C45.863 17.9409 46.6915 17.5709 47.5885 17.3148C48.4856 17.0587 49.3655 16.8424 50.234 16.666L51.0854 16.4838C53.2738 16.0513 54.8565 15.078 55.8335 13.5641C55.9192 13.4389 55.9878 13.382 56.0392 13.382C56.1249 13.382 56.1706 13.4787 56.1706 13.6779C56.1706 13.8373 56.1306 14.0194 56.0621 14.2129C55.5536 15.3455 54.8679 16.1708 54.0051 16.6887C53.1366 17.2067 52.2224 17.6164 51.2625 17.9295C50.4854 18.1856 49.7541 18.4986 49.0741 18.8515C48.3942 19.2101 47.8399 19.7223 47.4114 20.3825C46.9829 21.0484 46.7715 21.9989 46.7715 23.2283V23.4844C46.7943 24.6682 47.0971 25.6699 47.68 26.4952C48.2856 27.3603 49.217 27.7929 50.4797 27.8042C52.8681 27.8042 54.6222 27.0017 55.7478 25.4024C56.7135 24.0251 57.1934 22.1753 57.1934 19.8589V13.1145C57.1934 12.9665 57.1477 12.7274 57.062 12.3916C56.9763 12.0615 56.8049 11.7087 56.542 11.3387C55.9135 10.4508 54.8736 10.0069 53.428 10.0069C52.3881 10.0069 51.6796 10.6614 51.2968 11.9648C51.2339 12.1127 51.1539 12.1867 51.0568 12.1867C50.9939 12.1867 50.9368 12.1583 50.8911 12.1014C50.8397 12.0445 50.8168 11.9705 50.8168 11.868V9.52312C50.8168 9.27839 50.8511 9.12471 50.9197 9.06779C50.9882 9.01088 51.0854 8.98242 51.2054 8.98242C52.0681 8.98242 52.9423 8.98242 53.8223 8.98242C54.7022 8.98242 55.5878 9.11333 56.4849 9.38083C57.382 9.64834 58.199 10.0524 58.9418 10.6102C60.5874 11.8566 61.4102 13.6324 61.4102 15.9488V23.4673C61.4102 24.6113 61.6216 25.4878 62.0387 26.0911C62.3244 26.4952 62.7129 26.757 63.21 26.8651L63.3586 26.9221C63.4671 26.9733 63.5243 27.1213 63.5243 27.366C63.49 28.0945 63.21 28.6523 62.6901 29.0393C62.1701 29.4491 61.5702 29.6426 60.8902 29.6426Z" fill="#FD297B"/>
<path d="M69.3547 36.0009C68.7719 36.0009 68.2006 35.853 67.6292 35.557C67.0578 35.2611 66.5893 34.8057 66.2179 34.1911C65.8465 33.5764 65.6636 32.7796 65.6636 31.8063V7.71416C65.6636 7.219 65.5608 6.83198 65.3551 6.54741C65.1494 6.26283 64.938 6.02947 64.7151 5.84734C64.4923 5.66522 64.3666 5.4774 64.3438 5.29527C64.3438 5.1359 64.4523 4.99931 64.6752 4.89117C64.898 4.78304 65.1951 4.66352 65.5665 4.5383C66.1207 4.3391 66.6464 4.12851 67.1435 3.88946C67.452 3.7301 67.7492 3.59351 68.0349 3.48537C68.3206 3.37723 68.5948 3.32031 68.8691 3.32031C69.3662 3.32031 69.6576 3.5309 69.7604 3.94638C69.8347 4.25372 69.869 4.54968 69.869 4.83426V29.8712C69.869 31.8405 70.4746 32.9731 71.686 33.269C71.7602 33.2804 71.8288 33.3146 71.8917 33.3601C71.9545 33.4113 71.9831 33.5252 71.9831 33.713C71.9716 34.4529 71.6974 35.0163 71.166 35.4147C70.6403 35.8018 70.0347 36.0009 69.3547 36.0009Z" fill="#FD297B"/>
<path d="M77.0273 29.5855H73.1876C72.9305 29.5855 72.7991 29.5399 72.7991 29.4545C72.8505 29.3578 72.9019 29.2781 72.9648 29.2155C73.0905 29.0789 73.1991 28.9309 73.2962 28.7716C73.5076 28.4016 73.6105 27.7072 73.6105 26.6828V12.602C73.6105 12.1068 73.5076 11.7198 73.2962 11.4295C73.0848 11.1393 72.8677 10.9002 72.6448 10.7067C72.422 10.5132 72.2963 10.3425 72.2734 10.1774C72.2734 10.0181 72.382 9.88146 72.5991 9.77332C72.8163 9.66518 73.1019 9.54565 73.4619 9.42043C74.0047 9.2383 74.5361 9.01635 75.056 8.75454C75.3646 8.60656 75.6674 8.47564 75.9645 8.35612C76.2617 8.2366 76.5416 8.17969 76.7987 8.17969C76.9073 8.17969 77.0159 8.19107 77.113 8.21384C77.433 8.31059 77.633 8.51549 77.7072 8.82283C77.7815 9.13017 77.8158 9.42613 77.8158 9.71071V28.6521C77.8158 29.1074 77.7815 29.3749 77.713 29.4545C77.6501 29.5456 77.4216 29.5855 77.0273 29.5855Z" fill="#FD297B"/>
<path d="M96.379 29.5863H93.8192C93.4249 29.5863 93.1907 29.5464 93.1164 29.4668C93.0421 29.3871 93.0078 29.1196 93.0078 28.6643V16.5983C93.0078 15.551 92.8079 14.629 92.4022 13.8379C92.0022 13.0411 91.4765 12.4264 90.8366 11.9824C90.1909 11.5385 89.511 11.3165 88.7968 11.3165C88.5225 11.3165 88.2482 11.3507 87.9626 11.4247C87.2312 11.6353 86.6998 11.9938 86.357 12.5061C86.0142 13.0183 85.8028 13.6159 85.717 14.3103C85.6313 14.9989 85.5856 15.7104 85.5856 16.4332V28.6643C85.5856 29.1196 85.5514 29.3871 85.4771 29.4668C85.4028 29.5464 85.1685 29.5863 84.7743 29.5863H80.9689C80.7232 29.5863 80.5918 29.5407 80.5804 29.4554C80.6432 29.3586 80.7118 29.2733 80.7861 29.1993C80.8946 29.0627 81.0032 28.9147 81.1003 28.7553C81.3003 28.3968 81.3974 27.7138 81.3974 26.7064V12.6085C81.3974 12.1133 81.2946 11.7263 81.0889 11.4418C80.8832 11.1572 80.6661 10.9238 80.4375 10.7303C80.209 10.5368 80.0833 10.3604 80.0547 10.1839C80.0547 10.0246 80.1633 9.88797 80.3804 9.77983C80.5975 9.67169 80.8832 9.55217 81.2432 9.42696C81.7631 9.24483 82.2888 9.02856 82.8202 8.77814C83.1287 8.61877 83.4315 8.48216 83.7287 8.37403C84.0258 8.26589 84.3115 8.20898 84.58 8.20898C85.0771 8.20898 85.3685 8.41956 85.4714 8.83504C85.5456 9.14238 85.5799 9.43834 85.5799 9.72291V11.9198C85.9742 11.3905 86.4713 10.9125 87.0655 10.4856C87.6597 10.0587 88.3282 9.79122 89.071 9.68308C89.7395 9.58633 90.3166 9.44972 90.808 9.27897C91.2937 9.10823 91.7337 9.02287 92.1165 9.02287C92.2765 9.02287 92.425 9.04563 92.5622 9.09686C93.6249 9.47819 94.4991 10.0986 95.1848 10.9523C95.8704 11.806 96.379 12.7793 96.7047 13.8606C97.0303 14.942 97.196 16.0007 97.196 17.0194V28.6586C97.196 29.1139 97.1618 29.3814 97.0932 29.4611C97.0246 29.5464 96.7846 29.5863 96.379 29.5863Z" fill="#FD297B"/>
<path d="M110.295 29.5867C109.713 29.5867 109.141 29.4387 108.57 29.1427C107.999 28.8468 107.53 28.3858 107.159 27.7654C106.787 27.145 106.604 26.3482 106.604 25.375V16.5987C106.604 15.7962 106.484 15.0335 106.244 14.2993C106.004 13.5651 105.616 12.9277 105.073 12.387C104.536 11.8463 103.816 11.4592 102.913 11.2202C102.468 11.1121 102.022 11.0551 101.576 11.0551C100.708 11.0551 99.9135 11.2145 99.1936 11.5275C98.468 11.8406 98.0108 12.2276 97.8109 12.6829C97.7766 12.7569 97.7366 12.7911 97.7023 12.7911C97.6394 12.7911 97.6052 12.6943 97.5938 12.4951C97.5938 12.2617 97.7137 11.9487 97.948 11.5503C98.1823 11.1576 98.6451 10.7819 99.3307 10.4234C100.016 10.0648 101.011 9.80301 102.308 9.62657C102.925 9.5412 103.508 9.42736 104.05 9.29646C104.679 9.11433 105.222 9.01758 105.662 9.01758C105.844 9.01758 106.016 9.04035 106.164 9.09157C107.239 9.4729 108.119 10.0933 108.81 10.947C109.496 11.8007 110.004 12.774 110.33 13.8554C110.655 14.9367 110.821 15.9954 110.821 17.0141V23.4285C110.821 23.8838 110.867 24.3448 110.953 24.8115C111.038 25.2782 111.204 25.6937 111.455 26.0466C111.701 26.4051 112.067 26.6613 112.552 26.8206L112.627 26.8377C112.712 26.8491 112.787 26.8832 112.85 26.9401C112.912 26.9971 112.941 27.1223 112.941 27.3215C112.907 28.05 112.627 28.6077 112.107 28.9948C111.575 29.3932 110.975 29.5867 110.295 29.5867Z" fill="#FD297B"/>
<path d="M132.367 29.6426C131.835 29.6426 131.304 29.5174 130.778 29.2613C130.253 29.0108 129.801 28.6181 129.424 28.0945C129.047 27.5709 128.807 26.905 128.71 26.0911C127.893 26.9904 126.842 27.7872 125.556 28.4758C124.185 29.2044 122.813 29.5743 121.436 29.5857C120.511 29.5857 119.602 29.4718 118.717 29.2442C117.831 29.0165 117.037 28.6637 116.334 28.1799C115.631 27.7018 115.071 27.07 114.654 26.296C114.237 25.5219 114.031 24.5828 114.031 23.4901C114.031 22.1981 114.266 21.1452 114.734 20.337C115.203 19.5288 115.82 18.8913 116.58 18.4133C117.34 17.9409 118.168 17.5709 119.065 17.3148C119.962 17.0587 120.842 16.8424 121.711 16.666L122.562 16.4838C124.75 16.0513 126.333 15.078 127.31 13.5641C127.396 13.4389 127.464 13.382 127.516 13.382C127.601 13.382 127.647 13.4787 127.647 13.6779C127.647 13.8373 127.613 14.0194 127.539 14.2129C127.03 15.3455 126.344 16.1708 125.482 16.6887C124.613 17.2067 123.699 17.6164 122.739 17.9295C121.962 18.1856 121.231 18.4986 120.551 18.8515C119.871 19.2101 119.316 19.7223 118.888 20.3825C118.459 21.0484 118.248 21.9989 118.248 23.2283V23.4844C118.271 24.6682 118.574 25.6699 119.157 26.4952C119.762 27.3603 120.694 27.7929 121.956 27.8042C124.345 27.8042 126.099 27.0017 127.224 25.4024C128.19 24.0251 128.67 22.1753 128.67 19.8589V13.1145C128.67 12.9665 128.624 12.7274 128.539 12.3916C128.453 12.0615 128.281 11.7087 128.019 11.3387C127.39 10.4508 126.35 10.0069 124.905 10.0069C123.865 10.0069 123.156 10.6614 122.773 11.9648C122.71 12.1127 122.63 12.1867 122.533 12.1867C122.47 12.1867 122.413 12.1583 122.368 12.1014C122.316 12.0445 122.293 11.9705 122.293 11.868V9.52312C122.293 9.27839 122.328 9.12471 122.396 9.06779C122.465 9.01088 122.562 8.98242 122.682 8.98242C123.545 8.98242 124.419 8.98242 125.299 8.98242C126.179 8.98242 127.064 9.11333 127.961 9.38083C128.859 9.64834 129.676 10.0524 130.418 10.6102C132.064 11.8566 132.887 13.6324 132.887 15.9488V23.4673C132.887 24.6113 133.098 25.4878 133.515 26.0911C133.801 26.4952 134.189 26.757 134.687 26.8651L134.835 26.9221C134.944 26.9733 135.001 27.1213 135.001 27.366C134.961 28.0945 134.687 28.6523 134.167 29.0393C133.647 29.4491 133.047 29.6426 132.367 29.6426Z" fill="#FD297B"/>
<path d="M52.1529 14.7709C51.1644 14.179 50.2445 13.6895 49.096 13.4619C47.9476 13.2399 46.7534 13.2854 45.5878 13.3765C45.2964 13.3993 45.0221 13.4733 44.7536 13.5359C44.4793 13.5985 44.2165 13.6782 43.9651 13.7692C43.4622 13.957 42.9709 14.1563 42.5195 14.4124C42.0624 14.6685 41.7024 14.9758 41.291 15.2945C41.251 15.323 41.2053 15.3685 41.1539 15.4141C41.1025 15.4539 41.0739 15.4881 41.0053 15.5507C40.9368 15.6133 40.8339 15.71 40.7539 15.7897C40.6739 15.8694 40.5882 15.9605 40.5025 16.0572C40.4739 16.0914 40.4282 16.1426 40.3882 16.1881C40.3482 16.2336 40.3197 16.2678 40.2682 16.3361C40.2111 16.4044 40.1254 16.5125 40.0568 16.5979C39.9883 16.6833 39.914 16.7857 39.8511 16.8825C39.7197 17.076 39.5769 17.2638 39.4569 17.4687C39.2169 17.8728 39.0055 18.2712 38.8226 18.7095C38.4513 19.5859 38.1427 20.4397 37.8342 21.3617C37.6799 21.817 37.5313 22.3008 37.3371 22.7903C37.1371 23.274 36.8514 23.8147 36.56 24.2814C36.5486 24.3042 36.5143 24.3497 36.4972 24.3725C36.48 24.4009 36.4457 24.4408 36.4286 24.4636C36.3771 24.5262 36.3257 24.5888 36.2743 24.6514C36.2229 24.714 36.1715 24.7709 36.1086 24.8278C36.0515 24.8848 36 24.9417 35.9315 24.9986C35.6686 25.2092 35.4401 25.4254 35.1315 25.5905C34.8287 25.7555 34.5145 25.9035 34.1602 25.9889C33.806 26.0743 33.4117 26.1141 33.0346 26.0799C32.6575 26.0458 32.269 25.932 31.9261 25.7783C31.5833 25.6246 31.2862 25.414 31.0119 25.1864C30.7377 24.9587 30.5263 24.7083 30.3034 24.4522C30.1891 24.3213 30.1091 24.1847 30.012 24.0538C29.9606 23.9855 29.9263 23.9172 29.8806 23.8489C29.8349 23.7806 29.7949 23.718 29.7606 23.6497C29.4863 23.1375 29.2635 22.6537 29.0407 22.1073C28.9321 21.8341 28.875 21.6918 28.7435 21.3446C28.6464 21.0942 28.6007 21.0202 28.4293 20.5592C28.2579 20.1039 27.8808 18.9656 27.7094 18.3509C27.5379 17.7362 27.2123 16.615 27.0866 16.1483C26.9608 15.6759 26.9323 15.5677 26.8637 15.3173C26.7951 15.0669 26.7952 15.0555 26.7494 14.9075C26.7094 14.7595 26.6923 14.6969 26.658 14.6002C26.5895 14.401 26.538 14.2473 26.458 14.0709C26.4295 14.0026 26.4352 13.9343 26.3438 13.9457C26.578 13.5017 26.3152 13.9969 26.6809 13.2968C27.0465 12.5911 27.9436 10.8779 28.4293 9.98438C28.7607 10.1153 28.9892 10.4055 29.2178 10.6617C29.3721 10.8324 29.4635 11.0031 29.5892 11.1796C29.6406 11.2536 29.6635 11.3048 29.7092 11.3845C29.7549 11.4642 29.8177 11.5837 29.8577 11.6748C29.9891 11.9764 30.1206 12.2951 30.2177 12.6025C30.3148 12.9098 30.3777 13.1659 30.4463 13.4846C30.4805 13.644 30.492 13.718 30.5262 13.9343C30.5491 14.0766 30.5491 14.0595 30.5891 14.3555C30.6291 14.6514 30.6234 14.5034 30.7205 15.2035C30.8176 15.8978 31.3605 18.7834 31.5433 19.4778C31.7319 20.1722 31.7261 20.1893 31.8061 20.4966C31.909 20.8893 31.9318 20.9974 31.9947 21.2308C32.1261 21.6918 32.2175 21.9593 32.3661 22.3691C32.3832 22.4203 32.3946 22.4374 32.4175 22.4829C32.4404 22.5284 32.4461 22.5455 32.4689 22.5967C32.4975 22.648 32.5375 22.7277 32.5775 22.7846C32.6518 22.8927 32.7432 23.0236 32.8232 23.1147C32.9032 23.2058 32.9889 23.2854 33.0803 23.3537C33.1717 23.4163 33.2289 23.4505 33.3317 23.4789C33.4346 23.5074 33.5146 23.5131 33.6345 23.5017C33.7545 23.4903 33.886 23.4675 34.0117 23.4106C34.1374 23.3594 34.2802 23.2741 34.3945 23.1887C34.423 23.1659 34.4573 23.1375 34.4916 23.1147C34.5202 23.0919 34.5545 23.0635 34.583 23.035C34.6116 23.0122 34.6459 22.9781 34.6687 22.9553C34.6916 22.9325 34.703 22.9268 34.7144 22.9098C34.7316 22.8927 34.743 22.8813 34.7602 22.8643C35.0173 22.5228 35.2115 22.2496 35.423 21.8569C35.6344 21.4641 35.8229 21.043 36.0286 20.6047C36.4457 19.7282 36.8857 18.8176 37.3714 17.9525C37.6113 17.5199 37.897 17.0874 38.1941 16.6833C38.3427 16.4784 38.5313 16.2792 38.6912 16.0857C38.7712 15.9889 38.8684 15.8865 38.9484 15.7954C39.0283 15.7043 39.1426 15.5962 39.2112 15.5279C39.2798 15.4596 39.314 15.4255 39.3655 15.3742C39.4169 15.323 39.474 15.2775 39.5083 15.2433C39.6112 15.1466 39.714 15.0555 39.8054 14.9758C39.9026 14.8904 40.034 14.7937 40.114 14.7368C40.194 14.6742 40.234 14.6457 40.2968 14.6002C40.3597 14.5603 40.4225 14.5091 40.4682 14.4807C40.9596 14.1733 41.3996 13.866 41.9252 13.6156C42.4509 13.3594 43.0223 13.1773 43.5994 13.0236C43.8851 12.944 44.1879 12.887 44.4907 12.8415C44.7936 12.796 45.1021 12.7391 45.4164 12.7391C46.6562 12.7391 47.9476 12.8074 49.1303 13.1375C50.3245 13.4733 51.193 14.0652 52.1529 14.7709Z" fill="#FD297B"/>
<path d="M26.5137 13.6367C26.4682 13.7221 26.4283 13.8075 26.3828 13.8871L26.5137 13.6367Z" fill="#ED2224"/>
<path d="M28.4011 9.96758C27.9154 10.9067 27.024 12.6483 26.6355 13.3996C26.247 14.1508 26.5784 13.4906 26.3727 13.9175C26.367 13.9232 26.4241 13.8207 26.3669 13.9232C26.3098 14.0199 26.2355 14.1451 26.1727 14.2817C26.1098 14.4183 26.0356 14.5891 25.9784 14.7484C25.9498 14.8281 25.9213 14.9078 25.8813 15.033C25.8756 15.0501 25.9041 14.9647 25.847 15.1298C25.7899 15.2948 25.8813 15.033 25.6984 15.5794C25.5156 16.1258 25.1328 17.2755 24.7899 18.2772C24.4471 19.2846 23.3958 22.3921 23.1101 23.2231C22.8244 24.0598 22.8987 23.8491 22.7787 24.1963C22.6073 24.6801 22.5901 24.7314 22.4473 25.0728C22.1616 25.7558 21.8531 26.3022 21.4702 26.9169C21.4188 26.9966 21.356 27.0762 21.2988 27.1559C21.2417 27.2356 21.1788 27.3153 21.1103 27.395C21.0417 27.4746 20.9731 27.56 20.8932 27.6454C20.8189 27.7251 20.7503 27.8048 20.6646 27.8845C20.316 28.1975 20.0132 28.4877 19.5961 28.7438C19.179 29 18.7619 29.2276 18.2648 29.3984C17.7734 29.5691 17.1906 29.6716 16.6478 29.7171C16.5107 29.7285 16.345 29.7228 16.2021 29.7171C16.0593 29.7114 15.8993 29.7 15.7508 29.6773C15.4708 29.6374 15.1622 29.5805 14.8937 29.5008C14.3566 29.3358 13.7795 29.074 13.3338 28.7837C12.8881 28.4991 12.4882 28.1292 12.1625 27.7991C11.8368 27.469 11.5683 27.099 11.3511 26.7746C10.9283 26.1372 10.6369 25.5111 10.3455 24.8679C10.2027 24.5492 10.1112 24.2703 10.0084 23.9914C9.90554 23.7126 9.83126 23.4678 9.75127 23.2231C9.12275 21.3051 8.53995 19.4098 7.98571 17.4804C7.80859 16.86 7.63717 16.2339 7.47719 15.6079C6.92295 13.4849 6.42585 11.3449 5.96875 9.19922C8.95134 9.24475 11.9511 9.1423 14.8422 9.97895C14.9851 11.2254 15.1451 12.4775 15.3222 13.7183C15.4194 14.407 15.5279 15.107 15.6422 15.79C15.945 17.6113 16.2878 19.5008 16.6535 21.2709C16.7507 21.7547 16.8078 22.0165 16.9163 22.449C16.9335 22.523 16.9449 22.5401 16.9563 22.6084C16.9849 22.5458 16.9792 22.5686 17.0135 22.506C17.1678 22.1929 17.1392 22.2954 17.3335 21.8742C17.4934 21.5327 17.3849 21.7774 17.7563 20.9693C18.1277 20.1611 19.5104 17.1844 19.9732 16.2168C20.4303 15.2493 20.9617 14.1565 21.2188 13.6329C21.4702 13.1093 21.3731 13.3142 21.4588 13.1377C21.5959 12.8588 21.5959 12.8475 21.6874 12.6824C21.8645 12.3523 21.9788 12.1417 22.1673 11.8458C22.3616 11.5498 22.5387 11.2937 22.7844 11.0091C23.0301 10.7245 23.3158 10.4343 23.6358 10.1782C23.7957 10.0473 23.9957 9.90497 24.2014 9.79114C24.4071 9.67162 24.6471 9.55209 24.8928 9.46672C25.1385 9.38135 25.4185 9.30735 25.687 9.26751C25.8184 9.24475 25.9613 9.23337 26.0984 9.23337C26.2355 9.22767 26.3784 9.22767 26.5155 9.24474C26.7898 9.2732 27.0526 9.31305 27.3154 9.39273C27.5783 9.47241 27.8297 9.57485 28.0697 9.71145C28.1954 9.78544 28.3211 9.83098 28.4011 9.96758Z" fill="#FD297B"/>
<path d="M26.5137 13.6367C26.4682 13.7221 26.4283 13.8075 26.3828 13.8871L26.5137 13.6367Z" fill="#ED2224"/>
<path d="M14.8501 9.98941C11.9418 9.15276 8.9592 9.25521 5.94804 9.20968C5.3081 9.1983 4.54245 9.20398 3.87965 9.18691C3.61111 9.18122 3.38256 9.24384 3.09687 9.18123C1.26274 8.77713 0.468527 8.29904 0.211407 6.30701C0.00571098 4.702 0.1657 2.92626 0 1.28711C1.7427 1.42371 2.91403 1.46922 4.77672 1.64566C6.63941 1.8221 9.0449 1.86764 11.0047 2.15221C13.056 2.45386 13.6731 3.27345 14.3873 5.09473C14.4444 5.23702 14.4273 5.35652 14.4387 5.48743C14.5587 6.98999 14.6787 8.48686 14.8501 9.98941Z" fill="#EE337C"/>
<path d="M15.3015 13.7357C13.1017 14.3902 10.5876 15.2382 8.45063 15.6708C7.67927 15.8302 8.04496 15.557 7.44501 15.631C6.97648 13.4853 6.41081 11.3623 5.97656 9.21094C8.95344 9.25647 11.9589 9.15402 14.8501 9.99067C14.9815 11.2428 15.17 12.4836 15.3015 13.7357Z" fill="url(#paint0_linear_175757_17494)"/>
<path d="M30.6733 14.7421C29.6962 15.9317 28.7306 17.1496 27.6907 18.2766C27.5193 17.6846 27.1993 16.5179 27.0736 16.0569C26.9479 15.5959 26.9307 15.5162 26.8622 15.2715C26.7936 15.0267 26.7936 15.0267 26.7536 14.8844C26.7136 14.7421 26.6965 14.6852 26.6622 14.5885C26.5994 14.395 26.5422 14.2413 26.4622 14.0705C26.4279 14.0079 26.4337 13.9397 26.3594 13.934C26.5879 13.49 26.2451 14.1616 26.6336 13.4046C27.0222 12.6477 27.9135 10.9118 28.4049 9.97266C28.7249 10.1149 28.9706 10.4052 29.1991 10.6556C29.3534 10.8264 29.4505 10.9857 29.5762 11.1679C29.6276 11.2419 29.6505 11.2874 29.6962 11.3728C29.7419 11.4525 29.8048 11.572 29.8505 11.663C29.9876 11.959 30.119 12.2891 30.2219 12.5908C30.319 12.8924 30.3876 13.1656 30.4504 13.4673C30.4847 13.6209 30.5019 13.7348 30.5304 13.8941C30.5476 14.0023 30.5647 14.1218 30.5876 14.2527C30.6161 14.3893 30.6504 14.5942 30.6733 14.7421Z" fill="url(#paint1_linear_175757_17494)"/>
<defs>
<linearGradient id="paint0_linear_175757_17494" x1="10.4075" y1="5.1394" x2="10.8194" y2="16.6358" gradientUnits="userSpaceOnUse">
<stop offset="0.177885" stopColor="#010101"/>
<stop offset="0.8152" stopColor="white" stopOpacity="0"/>
</linearGradient>
<linearGradient id="paint1_linear_175757_17494" x1="22.8961" y1="10.7499" x2="30.1029" y2="15.4901" gradientUnits="userSpaceOnUse">
<stop offset="0.204" stopColor="#010101"/>
<stop offset="0.8372" stopColor="white" stopOpacity="0"/>
</linearGradient>
</defs>
</svg>
